<?xml version="1.0" encoding="UTF-8"?>
<svg id="Layer_2" data-name="Layer 2" xmlns="http://www.w3.org/2000/svg" viewBox="0 0 183.8746145339 105.9202635031">
  <defs>
    <style>
      .cls-1 {
        fill: #3c7974;
      }

      .cls-2 {
        fill: #12264b;
      }
    </style>
  </defs>
  <g id="Layer_2-2" data-name="Layer 2">
    <g>
      <path class="cls-1" d="M58.4081400727,10.2904274903c.1270313779-.2229870264,.2503506134-.4191346174,.3542977792-.6250615854,.9794814272-1.9403877824,2.4443344412-3.4306729205,4.2378089848-4.6299462033,2.7418228002-1.8334105895,5.7758278217-2.9892798094,8.955884463-3.7361527968C76.5590083025,.2182293048,81.232466271-.2067068813,85.9630711272,.094177693c3.6093224634,.2295568721,7.1707245439,.7286066622,10.6336004788,1.810714106,2.1381221887,.668142541,4.208564196,1.4903282191,6.1099565335,2.6962000682,2.1227853685,1.3462870439,3.9125549499,3.005851617,5.0202237606,5.311644885,.0321527532,.0669549852,.0954961183,.1189321582,.2215222739,.2712161562,.4673422068-.0454288677,1.0065003666-.0819256173,1.5410919451-.1529948338,1.2438620719-.1653662482,2.4893324994-.3720040519,3.7451854372-.2609772491,.6537678621,.0578002822,1.3111258039,.2124393724,1.9362448306,.4169303085,.5948187545,.1945894965,.9564402961,.6812391515,1.0707053508,1.3013177063,.2789061068,1.5134842327,.3567964746,3.0249795613,.0263368242,4.5508711092-.2476436933,1.1434690849-.9285525575,1.7614941142-2.0482553152,1.9723538515-1.0524390256,.1981939364-2.1080804023,.1865620784-3.1615820915,.0522069381-1.0079363984-.1285679319-2.0105020378-.2991828766-3.0562347946-.4574910282-.0966162232,.1251932571-.2108669175,.2307631389-.2738369144,.3611117503-1.019008204,2.1097461992-2.6082646576,3.6997278488-4.5287849393,4.9901532536-2.2354133468,1.5019959779-4.6972314759,2.4912137011-7.2766893344,3.2142988209-3.9481110986,1.1067353901-7.9747587793,1.623448372-12.0724469558,1.6806024398-4.2173383507,.0588126846-8.3713835974-.3945066711-12.4616044083-1.4121147441-2.5967764027-.6460635512-5.086195064-1.5778759011-7.3915000812-2.9564305807-2.2617142702-1.3524835213-4.1702652265-3.0537145587-5.335899463-5.4777363293-.0480496259-.0999334568-.1465901317-.175590795-.2757899177-.3253545571-.348654174,.0397996228-.7314428252,.0910228791-1.1157105891,.1259974349-1.2864332362,.1170653168-2.5720694747,.2891521941-3.8606854793,.3172194367-.6866529916,.0149490916-1.3915938489-.1760790459-2.0649563657-.359697259-.7026144857-.1915810097-1.1168953154-.7286497432-1.2311890907-1.4392557461-.2178962935-1.3546519294-.4305008095-2.7152777514-.0850130858-4.0834714612,.0765045971-.3029955412,.1719432741-.6012162764,.2481965656-.9042692589,.1956090791-.7775179072,.7529330419-1.2128653243,1.4777701205-1.3546734699,.8011406312-.1567356968,1.63508023-.2857631589,2.44292713-.235817971,1.246755676,.0770933701,2.4834375886,.3169968518,3.7245137586,.4869153209,.1485215946,.0203342111,.2978330067,.0348883939,.4869727622,.0567806995Zm24.9076924924-3.0793620876c-1.7973805502,.12442498-3.5964699783,.2281639212-5.3917467419,.3777625397-3.3059966349,.2754668105-6.4780258582,1.1085447902-9.5438964265,2.3628468136-1.2029423441,.4921352967-2.3406242207,1.106957975-3.367580861,1.9020241915-.4919916936,.3809002693-.9572947351,.8137202703-1.3623634205,1.2851767083-.548722132,.638660807-.5328827006,.9982144628,.0128668454,1.6619699265,.2966482804,.3608030035,.6261242489,.716558355,1.0051863975,.9829709847,.7348390405,.5164832168,1.4716598049,1.0670506497,2.2859688483,1.4256996054,1.5735678055,.6930648738,3.1707726953,1.3640579381,4.8134710743,1.8616788765,3.0494926251,.9237992921,6.192521185,1.3586369178,9.3802462364,1.4659659386,4.5706883488,.153906714,9.0839641441-.1971528133,13.500480113-1.4627994884,2.0041691373-.5743265799,3.9521319878-1.2932974684,5.7263206235-2.3978788107,.7585120256-.4722534357,1.4861206457-1.0294050747,2.1209759683-1.6561755379,.8084572135-.7981824056,.8106830629-1.3310148451,.0125221978-2.1139896734-.6653709995-.6527195589-1.4154822388-1.2413131153-2.2009198617-1.7446207399-1.4908451905-.9553489119-3.1253079268-1.6260978508-4.8148568451-2.1511541778-3.9634191981-1.2316773416-8.0306634994-1.7429764834-12.1766741478-1.7994771567Z"/>
      <path class="cls-1" d="M58.4421740276,31.472658443c-1.3284515282,.1600529304-2.5291034016,.3517272822-3.7371939199,.4338324034-.8141869806,.0553303074-1.6409607804-.0189268998-2.4579049422-.0861978121-.3430608299-.0282539267-.6864375868-.1610653328-1.0100401851-.2940993238-.6230439606-.2561521821-1.0043678593-.7306386473-1.1336322667-1.3974384985-.2856267359-1.4733902233-.3738206322-2.9413307058-.0499882689-4.4300864699,.2326946017-1.0697360293,.7857679102-1.7496181307,1.8744380195-2.0033075182,1.2474952324-.2907102886,2.4931236235-.2009798382,3.7394915709-.0496436212,.8915029357,.1082552614,1.7775704908,.261242915,2.7205192676,.4024192066,.3843180251-.6332972281,.764751584-1.2602041144,1.1740278428-1.9346508352,.7331660634,.2696939625,1.1014866936,.9166334931,1.6626161408,1.3066956457,.5466398858,.3799812089,1.0652843306,.8008965058,1.6183360986,1.1707752306,.5816862432,.3890138493,1.1895657074,.7388599297,1.8412872242,1.1398359243-.4554159622,.7241262429-1.2393529318,1.1613548616-1.4223536512,2.0491815558,.0965803224,.5851542601,.5220622006,.9965127651,.9539775015,1.3931447633,.8733155922,.8019304487,1.8867448125,1.3946525967,2.9384873627,1.9284399974,1.8976801951,.9631322046,3.9063584724,1.6039901404,5.9704819396,2.095220737,5.2824000963,1.2571094657,10.6085058221,1.4912975406,15.9892741005,.772369733,2.7299396366-.3647520911,5.3919693268-.9759272484,7.9716713108-1.9386214633,1.4735410067-.5498853178,2.8919814711-1.2216969202,4.1601986432-2.1568480441,.5611150869-.4137638583,1.0740369447-.914285581,1.5294888077-1.4437002647,.4181150348-.4859962606,.3966463586-.8712046254,.0084151467-1.3861297477-.3272142184-.4339975471-.7207443878-.8180068254-1.1288646409-1.2731643018,.8724611533-.5613592123,1.7489862767-1.0718900771,2.5651119003-1.6654451236,.8195146588-.5960178411,1.5788739432-1.274751117,2.4316901807-1.972102546,.6169049244,.4432958534,.7407195909,1.2459155974,1.2817589525,1.8388675105,.6939767541,.0720528983,1.4001741392-.2385966927,2.1323062597-.2747272541,1.1713855441-.0578146425,2.3431300962-.1196573543,3.5154347008-.1414060567,.3443747991-.0063975219,.6954127859,.0999334568,1.0360395418,.1842357068,.9201086902,.227704391,1.482932655,.7769865754,1.6826128844,1.7414973706,.3245144785,1.5675077511,.2714818221,3.1152485237-.10684077,4.6573887721-.1927154749,.7855525054-.6986294973,1.2891545165-1.4798882675,1.5253458558-.7962222221,.2406932992-1.6098635106,.3793493549-2.4343468397,.2894250401-1.244321602-.1357050103-2.4823677449-.3289302765-3.7232572308-.4962638883-.1904321843-.0256690694-.3819126717-.0435835668-.5544088181-.0629987175-.0813368443,.0851495088-.1542011006,.1317774631-.1850183442,.1979785316-1.4135148751,3.0353692518-3.8733656405,4.9816447648-6.7874045609,6.4067555972-3.6958003017,1.8074399534-7.6318200121,2.7891759506-11.709375022,3.2700886584-2.4969434682,.2944870524-4.9973477732,.4485301895-7.5075170947,.3629714116-5.0018425529-.1704569811-9.9049507356-.8904474523-14.5872331198-2.7593711095-1.9022898574-.759294663-3.6862291494-1.7285587236-5.2836207234-3.0226819103-1.325241997-1.0736276756-2.4332841761-2.3259336148-3.1967433314-3.864684828-.0854941565-.1723166424-.1950992878-.3326639593-.3020333998-.5129003174Z"/>
      <path class="cls-2" d="M165.3653219796,60.5520306533c-.9032927572,.0856593001-1.6741977377,.1450104967-2.4904095233-.0328133279-.0424921826-.2202872865-.0976645264-.4045732544-.1112063068-.5918605289-.2336423828-3.2308562681-2.5936458533-5.6223375569-5.5591665156-6.3836067637-2.0511273789-.5265354398-4.1175341368-.4430876287-6.1478964951,.1794896215-1.1856453405,.3635601846-2.1857840859,1.0255565093-3.0376669027,1.9311469175-1.8787030341,1.9972474637-2.1744107136,5.7646913947,.7783149049,7.8307247843,.826421972,.5782613072,1.7450946304,1.0617014311,2.6824787838,1.435687207,1.3785187788,.54998584,2.804699455,.9854768603,4.2236425305,1.4278608334,1.6475019055,.5136542341,3.2762348747,1.0753293734,4.7985291629,1.8919288875,.8255316323,.442829143,1.6286468073,.9416778887,2.3898729331,1.487757722,3.8622651143,2.7705793381,4.0423722295,8.9413374603-.006849872,11.9649599715-1.7420789635,1.3008438158-3.6982128352,2.0492748978-5.8296143948,2.3097997969-2.2305021179,.2726880889-4.4571269498,.2050222679-6.6417478499-.4112651629-1.5605070958-.4402299254-3.0135272073-1.1095787331-4.3139258532-2.0793741255-2.3273193855-1.7356168201-3.3038497673-4.0818631055-3.1257961777-6.9809816549,.832596909-.3143904539,1.6368609095-.0980378947,2.4946458172-.1523773401,.0591788727,.3895810818,.1183577455,.6886777965,.1482846493,.9906609352,.2028682201,2.0483414771,1.1649521214,3.6167036672,2.9228274353,4.702286308,1.4939039384,.922578665,3.1100859892,1.4623830392,4.8564299673,1.617230354,1.4926402303,.1323446957,2.9772674029,.0894791449,4.4355290307-.2818068911,1.3494391338-.3435706212,2.5705257404-.945253608,3.5827702344-1.9217983501,2.1764642392-2.0997514175,2.132277539-5.4873505626-.0999190964-7.5291006535-.7292744171-.6670511568-1.5791755099-1.1516831871-2.4647332737-1.5790031861-1.5920997966-.7682339613-3.2745403572-1.2847028178-4.9505762157-1.8292748177-1.486221168-.4828800714-2.9550232695-1.0279403222-4.4044245807-1.6126924934-1.1288646409-.455451863-2.1612279412-1.1070656774-3.1054476063-1.8812735312-2.0157291937-1.6527721425-2.7504030905-3.8300405595-2.5626132049-6.3696054531,.1941658671-2.62595657,1.5516467792-4.542068234,3.6889935107-5.9670857243,1.3915579481-.9277914606,2.9300219549-1.4752498846,4.581200102-1.7139901804,2.1964107217-.3176071653,4.3845498998-.2980771321,6.5180624263,.3556189285,2.8796603178,.8823266921,5.0685175119,2.6091549973,6.2361693732,5.452656033,.4768056567,1.161146637,.7240903421,2.3794760625,.5142430071,3.7401018844Z"/>
      <path class="cls-2" d="M11.7145662772,51.3481578493h2.671126952c3.9030807297,10.7023864046,7.8034688997,21.3973916055,11.7268946107,32.1555678476-.974419415,.3068225661-1.8530842259,.1612950979-2.8088136862,.1287115351-1.2025474354-2.933813079-2.1003545509-5.9692972133-3.2854613794-8.9211899334H6.0287381619c-1.1487177813,2.9190937525-2.1124710697,5.9311418469-3.2809630096,8.8816846971-.9426651606,.1276488716-1.8237030141,.1666514967-2.7477751522-.0313485754,.0280492922-.1934334908,.0241720062-.351899606,.074924962-.4903330768,3.867797427-10.5499516232,7.7398885893-21.0983379718,11.6396413152-31.7230924943Zm1.3377067535,4.1119479729c-.1073900522,.1817585518-.1840777433,.2754739907-.2231629403,.3828891734-1.8978022578,5.2156102548-3.7936156115,10.4319385254-5.6816313122,15.6510814185-.0602487165,.1665509745-.0368413972,.3633735005-.0519735829,.5406372726,.891786552,.1496919605,9.3044668354,.2360979972,11.3123193944,.1211723679,.1818159931-.0103825103,.3610327686-.0661436272,.5389068542-.1003355457-.1545277978-.9434011269-5.2596748922-15.3198319506-5.8944584132-16.5954446868Z"/>
      <path class="cls-2" d="M124.7840526297,74.7033778441h-14.000965935c-1.1597967671,2.9504279676-2.1221104335,5.9657358543-3.2988523765,8.9049484131-.9568280247,.0882154368-1.8382787374,.1718786527-2.8288678711-.0804752251,3.926628062-10.7554908626,7.8723266271-21.4377441006,11.8082888962-32.1650743785h2.5608181651c.5630824505,1.0615578279,11.5389324012,31.2040387804,11.7201165403,32.1894438391-.8787653331,.2312298492-1.7575450266,.1428708092-2.7129801004,.0574269139-1.1491270504-2.9184044572-2.0954576823-5.900353324-3.2475573186-8.9062695624Zm-12.9928428524-2.6338260246c.2764935733,.0392323903,.4652743209,.0891201369,.6540981495,.0893642623,3.5259895349,.0045378607,7.0519790698,.005184075,10.5779542444-.0017519589,.2177885911-.0004308096,.4354479393-.0703799212,.6588226943-.1089660971,0-.1946253973,.0311475309-.3183539019-.0044660591-.4182873586-1.8918283653-5.3088374428-3.7888695262-10.6158367647-5.6913676082-15.9208543628-.0205783365-.057340752-.1201671456-.0863342351-.1830078995-.1283525272-.4509858039,.7858109912-5.6408910885,14.9835276506-6.0120335213,16.4888480422Z"/>
      <path class="cls-2" d="M45.5019330221,53.7948258422c-1.3243013962-.1692363541-2.570418038-.0668903638-3.8112429025-.0849269239-1.2141218521-.0176488315-2.4287247749,.0005169715-3.6430763922-.0050548321-1.2463105062-.0057154068-2.4940857648,.0271553624-3.7557115507-.0258198527-.2597350815-.8010760098-.1948551624-1.5185749656-.0848551223-2.2251600794,.9473502145-.1868708252,23.7578330657-.2134948558,24.9943785553-.0308603246,.1541436593,.7009415086,.1355542269,1.415625842-.0043439964,2.2278310986-.4602410293,.0195156729-.8805962737,.0520992357-1.3010089595,.052788531-2.7813064961,.0045953019-5.5626417127,.000272846-8.3439553889,.0047101845-.381338259,.0006031334-.762633437,.0337611089-1.1931127061,.0541958422-.1536625886,1.4756806941-.051977173,2.8800911273-.0706671276,4.280150384-.0188191975,1.4099965971-.0041429519,2.8204383641-.0041429519,4.2306934469v12.809748791c0,1.4102407225,.0078048331,2.8205532466-.0022043089,4.2307221676-.0099373404,1.400705471,.0454073273,2.8038234755-.0435763866,4.2734297549-.8777601108,.1586527993-1.6841996996,.1090809797-2.565729394,.0322245548-.0439712954-.2596345593-.1139491277-.5162965327-.1255594452-.7755864444-.0210163262-.4691803276-.0078479141-.9398972092-.0078550942-1.4099822368-.0001292429-8.7357120591,.0004451699-17.4714097578-.0016370763-26.2071218168-.0001077024-.4618565651-.0224810787-.9237274905-.0356997519-1.4319822448Z"/>
      <path class="cls-2" d="M73.5151377421,51.3487897033h2.4860511666c.3142396706,.3670353817,.2031195257,.7758162095,.2044478551,1.1534638666,.0096573142,2.7447307647,.0053348583,5.4894902501,.0053492187,8.2342497354,.0000359008,6.3129396361,.0000287206,12.6258936326,.000043081,18.9388332688,0,.4649871145-.0000071802,.9299742291-.0000071802,1.3884848399,.5000693727,.3128251792,.9799265971,.217199818,1.4339855092,.2180901578,4.0779211981,.0080130577,8.1558495763,.0046814638,12.2337779545,.0048537877,.6665772663,.0000143603,1.3334273786-.0099947817,1.9996312766,.0062754592,.3036058547,.0074099244,.6059049204,.0674504162,.9256661335,.1056201429,.1475522731,.7568893096,.1450392173,1.440871282,.0151644964,2.1183049491-.1599165073,.0619504142-.2660105408,.1389217216-.372233817,.1390796851-6.155737229,.0096357738-12.311474458,.0136423026-18.4672260474,.012349874-.1478610199-.000043081-.2957076795-.0660718256-.4888396036-.1120966466-.0352833027-.2404348134-.0897735314-.464829151-.0981599574-.6909036459-.1410757694-3.8039047797-.0500744308-30.3380397705,.122349914-31.5166054739Z"/>
      <path class="cls-2" d="M182.7413505016,47.7125847235h.9590251535c.0858459843,.1158016088,.1710601145,.1771776102,.1712324383,.2387977371,.0053707591,1.9521273429,.0027715415,3.9042834064-.0017519589,5.8564251096-.0000861619,.03200915-.038859022,.0639177779-.1141358118,.180006593-.1513577575,.0221723318-.3683278104,.0539373565-.5902090923,.086420397-.0752911501-.1309086639-.1774648166-.2273669235-.180638447-.326970093-.0248720717-.7809715638-.0325692025-1.562546261-.041745446-2.3439629947-.0044373384-.378451835-.0007467366-.7570041922-.1780966706-1.1807341115-.0858603446,.1479974429-.1902885811,.2883982774-.2545366462,.4452703972-.3850719418,.9402992981-.7571621557,1.8859262744-1.1418176483,2.8263978963-.1375144104,.3362181381-.3034478912,.6553044162-.8866204274,.5195850457-.7214624038-1.1856884214-1.0399886294-2.6533991388-1.8872474237-3.9159727057v3.8546397852c-.3361463365,.0382846092-.5826268441,.066359032-.8179637444,.0931697467-.2406358579-.8774154632-.2823956642-4.9559756954-.0822846253-6.2146145351,.0638459763-.0422049762,.1260261556-.1173238025,.1919112971-.1207559186,.2673891313-.0139007884,.5359270881-.0057584877,.8848684685-.0057584877,.7295903441,1.4953543305,1.204241953,3.1088222811,1.9562631146,4.7472197447,.4112077216-.504047181,.5085706813-1.0327223083,.7093997362-1.5035253518,.2299517809-.5390576376,.4306946738-1.0905225904,.6491007586-1.6345919792,.202681536-.5048944398,.4118682962-1.0071609412,.655246975-1.601046275Z"/>
      <path class="cls-2" d="M109.9406816881,104.1207632323c.5278278685-2.0731273869,.9905029717-3.8935418881,1.4573569277-5.7128937257,.0185248109-.072174961,.0767559026-.1341397355,.1417650647-.2433786787h.7217352498c-.6527339192,2.5535231233-1.2794613015,5.0053608309-1.915077721,7.4919074285-.2383956482,.0290652847-.4203121635,.0512376166-.6798605609,.0828733983-.7719963647-1.8888845-1.1090904823-3.8971032471-1.911200435-5.9597619618-.5096189846,1.0843045725-.6944506446,2.0732422695-.9928724243,3.021224338-.2935967127,.9326165277-.5758918547,1.8688087747-.8732078899,2.8361485526-.2054817981,.0371501441-.3877716817,.0701214355-.6161294672,.1114073513-.0946775802-.1913656049-.2094165254-.3509661853-.2559008765-.5284453622-.4562560409-1.7425815746-.9014833571-3.4880926543-1.3491519274-5.2329287989-.144981776-.5651359761-.2879961884-1.1307889236-.447338283-1.7568126503,.2333120954-.066086186,.4063108529-.1150835928,.6213853438-.1759857038,.550028921,.9247327128,.6093801175,1.9591926196,.8822836112,2.9235454513,.2746410922,.9705277686,.5028983555,1.9541952287,.8036608671,3.1373275135,.7471386533-2.0853192974,1.1513098188-4.0761046178,1.8559706499-5.9887410846,.236356483-.0104112309,.4226385351-.0186109728,.68432662-.030113588,.7108214077,1.9140294178,1.1296113775,3.9012102982,1.8722552511,6.0246275207Z"/>
      <path class="cls-2" d="M97.0625921412,102.3131294146h.428310861c.0498446657,.1033655729,.157647577,.2180470768,.1382467866,.3040510246-.1442493998,.6395942277-.3137298793,1.2735017693-.5128213356,2.0568284254,.1459295571,.2101919826,.3812664574,.5491529415,.6214715057,.8951360963-.6016111852,.4228252193-.8884298275-.0877415463-1.2979286712-.364206399-.2625353437,.1330483513-.5287469289,.2836306516-.8072940277,.4061385291-.7434911324,.3269988136-1.5045162138,.3890066691-2.2849564458,.1286540939-1.4137015593-.4716072214-1.8981181848-2.0411038766-.9660617096-3.214212659,.2640000962-.3322690505,.6125537479-.5973318102,.9622275045-.9312666577-.1439334728-.2705196808-.2838029754-.4937939135-.3847560148-.7334389094-.1202102266-.2854256914-.2565758115-.5778304977-.2997716497-.8795407903-.1923421066-1.3434078,.8241530417-2.2916483543,2.1486770228-2.02998899,1.2803947222,.2529282906,1.7640071699,1.6181350541,.8988410584,2.604904343-.3311489457,.3776907381-.7438357801,.6838958105-1.1150787351,1.0188071596,.4724257595,.8686987498,1.1345513271,1.6304418471,1.8823361947,2.1708062737,.4780262838-.3253904579,.3254622595-.9186295774,.5885576556-1.4326715401Zm-3.2636265151-.2806580657c-.3823147607,.4548918106-.7105485617,.7451282087-.9123110372,1.1060604551-.442154208,.7908801836-.0641188223,1.7564536424,.7947000283,1.9786077703,.81190369,.2100340191,1.5989353082,.1247480872,2.2807057915-.6102273763-.7101895537-.8124206614-1.3714822228-1.5688935218-2.1630947826-2.474440849Zm.2209478611-1.0196687787c.5363578977-.2863447518,.9988893978-.5607560789,1.2600892318-1.0750708877,.2271945997-.4473526434,.0597532855-1.011253632-.3489557407-1.2147537062-.6598566372-.3285353677-1.4033621299,.06897261-1.4950527639,.8081843675-.0670914083,.5409819203,.1302911702,.9931596307,.5839192727,1.4816402263Z"/>
      <path class="cls-2" d="M140.6665936626,103.8975895218v-5.6810568995c.2258016488-.0445600685,.398786046-.0786801853,.5465680842-.1078459923,.293295146,.3577586159,.3546137062,5.8406000385,.114911269,7.5006672228-.3566959524,.2314739747-.6563814401,.134383861-.888630872-.1972246149-.3141319682-.4485158292-.6100837731-.9097836212-.9131726564-1.3660253017-.8011908923-1.2060082722-1.6002851782-2.4134094952-2.4045922596-3.6173211609-.1458146745-.2182768419-.3122938474-.422724697-.601151655-.8108123058-.1858512426,2.1319759723,.0321527532,4.0656215852-.1451684602,6.0137423992-.1970379308,.0330861739-.3400523432,.0571109869-.4603056507,.077315955-.079656687-.0872963764-.165402149-.1375574914-.1750092021-.1995940675-.03561359-.2300666634-.0629125555-.4639818922-.063429527-.6965185305-.0043224559-1.9571678147-.0033746749-3.9143499897,.0001723238-5.8715178043,.0004164492-.2304400317,.0263368242-.4608513428,.0406684221-.695010697,.3354570412-.2271515188,.6190158913-.2204596103,.8537065773,.0593942775,.2001684802,.2386684942,.3649818562,.5076803416,.538669909,.7677744311,.9561961707,1.4318960829,1.9084576142,2.8664344644,2.8672099216,4.2966216694,.1449386951,.2161802354,.3167455462,.4143239107,.4761163614,.6208252914,.0711410181-.0311331706,.1422963965-.0622807015,.2134374146-.0934138722Z"/>
      <path class="cls-2" d="M35.0842542929,101.9536332001c-.0830959833,.5860158792-.1175392073,1.1757654413-.25651119,1.7397813125-.331931583,1.3471702035-1.4273654024,2.1808441364-2.8204311839,2.2087749559-1.3844711309,.0277297751-2.5162437363-.7730590283-2.8822882561-2.1199851063-.3332024712-1.2260552769-.3366776683-2.4804434622-.0076827704-3.7075470423,.3684211525-1.3741388817,1.4615573209-2.1684511814,2.8528639634-2.1581261124,1.4275018254,.0105979151,2.541927166,.8790525395,2.871690341,2.2952240736,.1318277243,.5661555587,.1638799552,1.1555317525,.2423590961,1.741877919Zm-5.459599247-.0808198728c.095165831,.6263827347,.1235561808,1.2609364906,.296992928,1.8530124243,.2810816951,.9595421249,1.0477934626,1.4690175063,2.0282801121,1.4701663318,.9814057099,.0011488255,1.7582199615-.5021372586,2.0547461792-1.4482955667,.3837436124-1.2244469212,.3925321273-2.4836601735-.010009142-3.702305526-.2894250401-.8762235567-1.0466446371-1.4406127963-2.0841848322-1.4050566475-.9983796064,.0342206391-1.7148661598,.5073644146-2.0011534704,1.4950958448-.1611443146,.5560028135-.1928734384,1.149514779-.2846717747,1.7373831393Z"/>
      <path class="cls-2" d="M21.8651071805,102.4661529691v3.1600168168c-.2349419916,.0376240346-.3767357769,.0603420585-.4925876468,.0788955901-.084029404-.0883734003-.1688917064-.1361932611-.1814713455-.1985888452-.0381984473-.1894844032-.0664164733-.3845980513-.0668042019-.5775576516-.0040639701-2.0367670604-.0034751971-4.0735484811,.000990862-6.1103155415,.0004164492-.1898146905,.0362382639-.3795575795,.0622160801-.6339649829,.2464374266-.0482219497,.4649583939-.1261410381,.6839532517-.127490908,.782694802-.0048825083,1.5672061844-.0114451739,2.3479192625,.0348955741,.8718508397,.0517689484,1.6023746045,.3771881269,1.9426782533,1.2638947162,.3464426849,.9027327048,.1614961424,1.6863178466-.5494760487,2.3460165203-.0823492467,.076411255-.14470893,.1743629878-.2547448709,.3094648647,.8223005606,.5383683423,1.0143267402,1.3299809022,.9855199412,2.2391901106-.0143100574,.4518043421,.0908074743,.9073998083,.1458433952,1.3962968532-.3875419166,.1665796951-.7083729734,.0826005523-.8104748383-.338917878-.099897556-.4123852677-.1090881598-.8497000484-.1308943035-1.2774652172-.0574628147-1.1269259979-.4415438945-1.5604496545-1.5440788914-1.65581653-.4668467758-.0403812158-.9390284099-.0299412642-1.4085246645-.0234647605-.1877755253,.0025848573-.3748330347,.0567376186-.7300642346,.114911269Zm.0813583847-.8110420709c.7565949231,0,1.3769247835,.0182088839,1.9953088207-.0085300292,.2642729422-.0114595342,.5395746091-.0815235284,.7835564212-.1862246109,.5817293241-.2496684982,.8861393567-.784719607,.8136412885-1.4033908506-.0686495028-.5857717538-.3484100486-1.0298502445-.9484631392-1.1934286331-.8692085411-.2369596163-1.7414471095-.2422729342-2.6440433912-.0388303014v2.8304044252Z"/>
      <path class="cls-2" d="M46.205236803,102.4348905556c-.2001613001,1.0946152812,.0427004072,2.1608402126-.1726971908,3.2203301547-.1946110369,.0166292489-.3402318472,.0290652847-.5223853078,.04463187-.0534060247-.1667663793-.1311168885-.3073108169-.1398264217-.4520341072-.115765708-1.922516366-.0380117632-6.1831510771,.1380960033-7.1252023341,1.1746596968-.1232546141,2.3857156209-.2121737065,3.5643746664,.0768277042,1.4258432086,.3496163153,1.9475392211,1.993427619,1.0732614875,3.1898288381-.136638431,.1869857078-.3180738757,.3412442496-.4965869955,.5293931432,.2573512687,.3608891654,.6051007426,.6932587381,.7528971411,1.0985212878,.154897576,.4247925829,.1097846353,.9205538601,.1672977111,1.3834156475,.0479562838,.3860340832,.1179125756,.7693397058,.1791162532,1.1601270544-.5359342683,.1878329666-.7377829058,.1393956121-.8430799415-.2826828706-.0748675207-.300101937-.0818107348-.618283515-.1065104827-.929385456-.0216769009-.2731332588,.007302222-.5541359721-.0445457081-.8202613954-.1152774571-.5917025654-.4718872476-1.0011008868-1.0767869457-1.0981766402-.8069637404-.1294582717-1.62065529-.1560392213-2.4726242687,.0046671035Zm-.026868156-.8118893297c.8714200302,0,1.6144372721,.0643485874,2.3411196516-.0171031394,.8165779737-.0915183101,1.2742628662-.6770315782,1.2669821847-1.4227916409-.0071801593-.7357509207-.376786038-1.2073294215-1.1722328029-1.3760057231-.7948436315-.1685183381-1.6007159877-.1934622115-2.4358690334,.0151644964v2.800736007Z"/>
      <path class="cls-2" d="M151.0692227778,103.6014223121c.1900013747-.0255326464,.301365645-.0404960983,.392697271-.0527741707,.0866932431,.0559334407,.1846306155,.0826005523,.2102781445,.1410326884,.5434662554,1.2379599809,1.3847367968,1.7167904425,2.6751263007,1.480635004,.2624204611-.0480352655,.5308148148-.1539426148,.7563292572-.2965980193,.7722261298-.4886385592,.836474195-1.4235814584,.0898094322-1.9446743375-.4389662173-.3063486755-.9816857361-.4652599606-1.4804195993-.6843984216-.5697887193-.2503721539-1.1744299317-.4399283587-1.7062356084-.7537156792-.7247796374-.4277077276-.9176674361-1.1405539402-.7535146348-1.9387291657,.1174386851-.5710093464,.4869584019-.977578685,.9923554528-1.2445370068,1.0050499744-.5308866163,2.0280647073-.5415132521,3.0358718629-.015236298,.7174558749,.3746607109,1.066928587,.9975395278,1.1283333091,1.8614562916-.181270301,.054727174-.3510379869,.1059791509-.5789936835,.1747937973-.0927245768-.2095457682-.1624152028-.3820275543-.2439387311-.5487508526-.5248122016-1.0732902082-1.6939718964-1.4889639888-2.7631694137-.9808815583-.49498582,.2352220178-.8198736668,.6039519171-.83354469,1.1751910286-.0127950438,.5342900118,.2963826145,.8911008468,.7430028816,1.1023842135,.4572756235,.2163381989,.951026456,.3540536538,1.4191010391,.5494832289,.5025393475,.209804254,1.0369729626,.382917894,1.4816833073,.6839963327,1.2408894859,.8400499143,1.1496727425,2.4177032305-.1471071032,3.1774933244-1.0891870808,.6381869165-2.8040388803,.5178618074-3.7745522886-.2648617153-.4812429951-.3881163293-.6037365123-.6808945039-.6431125058-1.6213086845Z"/>
      <path class="cls-2" d="M158.5983234313,103.6346951701c.2115274922-.0505052403,.3551881189-.0848120413,.5434088141-.1297454781,.0794269219,.1470783825,.1855927569,.2694139363,.2139113051,.4076750832,.267015763,1.3030265843,2.3346287877,1.57873034,3.2683941408,1.0279259619,.8646778606-.5100928751,.9286243591-1.5599901243,.0692741767-2.0933754361-.457390506-.2838891373-.9978410945-.4341411503-1.5012707818-.6436007566-.4675288909-.1945105147-.9695943479-.3317089981-1.3972302739-.5915876828-1.3344326009-.8109846296-1.3491088465-2.4428194276-.0182519649-3.2481460917,1.0534873289-.6374545403,2.1687814688-.6297286889,3.229994649,.0014073112,.6386464467,.3798304256,1.0221674741,.9553345516,.9682875589,1.8133779451-.1670535857,.0378394394-.3404544321,.0771292709-.5207195108,.1179700169-.0823564269-.133392999-.1537990116-.2232167915-.1981149547-.3248304055-.4948709374-1.134910335-1.2385774746-1.5525514793-2.4108246379-1.2941231868-.2918303935,.0643485874-.5945028275,.2173434212-.8213815002,.412083701-.6184127579,.5308578957-.5982365103,1.3259456527,.0622950618,1.8043022238,.339865659,.2461502202,.7611830449,.3852873466,1.1553019874,.5497704352,.5757195308,.2402912102,1.1737549967,.4307521151,1.7374836616,.6953122637,.7860551166,.3689165835,1.1733672681,1.0037288251,1.099698834,1.8900046048-.0752480692,.9055473272-.6601151229,1.3835879713-1.4403255899,1.6687695373-.8000851478,.2924622475-1.6130658617,.2698591061-2.4190100195-.0005744127-.9930160275-.3332311919-1.364732873-.7854089022-1.6209209559-2.0626156338Z"/>
      <path class="cls-2" d="M56.2653076995,98.1037466804c.9123971992,2.4951915093,1.8109725917,4.9526010206,2.7362294561,7.4829753103-.2264765838,.069561383-.3917638503,.1203394694-.5695733145,.1749517609-.579244989-.5753318022-.5324662514-1.4146062594-1.0151093776-2.0556077983-.9737660205-.1358486135-1.9846103834-.0593942775-3.0857524294-.0389164633-.2590960474,.6395511468-.5202456203,1.284171486-.8065185705,1.990814041h-.7463847366c.8733802137-2.570597542,1.8139523578-5.0053895515,2.7314761907-7.4988434623,.2441756764-.0178929569,.4596091752-.0336893073,.7556327818-.0553733883Zm-1.6570586975,4.6947040598c.8929533279,.1752389672,1.6771703237,.2176593482,2.468804424-.0110143643-.3502912503-1.5889979678-.7935009418-2.7089735715-1.3037015192-3.2574802987-.3889707683,1.0911831651-.7671425771,2.1520804183-1.1651029048,3.2684946631Z"/>
      <path class="cls-2" d="M9.1567530088,105.6747220228h-.5673833659c-.2258447298-.8840068494-.2471626227-6.3955401884-.0256475289-7.5073734916,.1291782455-.0142741566,.2726198774-.0301279483,.4672416845-.0516397055,.3493506494,1.1187406163-.0105297036,2.2678676667,.2482755474,3.416449025,1.2986610474,.1801358358,2.5774438239,.0427075873,3.9374772827,.0933851515,.3099172147-1.1405826609-.0034105757-2.2856313808,.2275966886-3.4576631393,.189656727-.009420369,.3593705617-.0178355156,.5194163119-.0257767718,.1966645625,.9090512449,.2376166009,5.9915700674,.0617098789,7.484942674-.1493042319,.0223446557-.3210536417,.0480639862-.5306604413,.0794412822-.3046792885-1.1049547106-.0017052878-2.2124799181-.2070291224-3.2584424401-.9758733972-.2354661432-2.9981473061-.2399465626-4.0764600357,.0027859018-.0171354501,1.0128476274-.034755561,2.0544015315-.0545368998,3.2238915136Z"/>
      <path class="cls-2" d="M38.4236889296,102.6432300571c-.0263942655,1.0903359063-.0488250831,2.0171652256-.0726488515,3.0012634952h-.5828422488c-.187445238-.8839494081-.221077104-6.0807907265-.0425209032-7.4531920097,.1886515047-.0425927048,.4045804346-.1313251131,.6212273803-.1331201529,.8214963828-.0067206291,1.6485645691-.0407115031,2.4636706101,.0379399616,1.4073973795,.1357911722,2.1630947826,1.088023895,2.0553493126,2.4845792339-.070415822,.9127131262-.5348069833,1.5551363367-1.3996715281,1.8383218184-.4377527704,.1433446997-.91694224,.1834817901-1.3812185187,.2161802354-.5033004444,.0354556265-1.0110382273,.0080274181-1.6613452526,.0080274181Zm-.0021253271-3.8688565005c-.0124647565,1.0588868087-.1385842541,2.0526782933,.0849269239,3.1365951372,.7334389094,0,1.4338060053,.0398929649,2.1277181379-.010009142,.8825708175-.063472608,1.3849952825-.5883996921,1.4495090136-1.406880408,.0710261355-.9011817904-.3580745429-1.5255540805-1.2487661206-1.7111037564-.7656491039-.1595000581-1.5416232769-.1188459963-2.4133879547-.0086018308Z"/>
      <path class="cls-2" d="M66.528239636,100.4426404827c-.217063395,.0297689403-.3610686694,.0495143783-.5617469409,.077043109-.0715790078-.1940940655-.1344413022-.3691463486-.200520308-.5429923649-.3741940005-.9846008808-.9113919769-1.349855583-1.9446168963-1.3550540183-.9413404212-.0047389051-1.5937440531,.4673709274-1.8875346301,1.3078516513-.463249516,1.325285078-.4847181922,2.7075519,.0235006613,4.0175145181,.4996242029,1.2878046466,1.6522336305,1.4573138467,2.7198012517,1.1232928373,.4697260196-.1469635,.8085792762-.467758656,.9880114565-.9350290612,.0954027763-.2484478712,.1753035887-.5028552745,.2684661552-.77268566h.5386196479c.1703492787,.8459232846-.1891541159,1.4522733749-.7920792702,1.9339328193-1.4630220733,1.1687576058-3.6952474295,.6299871746-4.4597548881-1.0733763701-.1421240726-.3166737446-.2674824734-.6678409743-.2838604167-1.008683135-.0411638531-.8572392156-.0970685732-1.7269431878-.0005026112-2.5749630789,.2279485164-2.0016991625,1.8925679217-3.1111055718,3.7816821868-2.595842982,1.1798222313,.3218003783,1.6819666701,.9548319405,1.810534602,2.3989917354Z"/>
      <path class="cls-2" d="M85.4298006979,103.3083856518c.2074204411,.0401945316,.381654186,.0739556405,.5780746231,.1120104847-.0381984473,1.2153568395-.6088487857,1.9649511073-1.6996729428,2.3056065839-1.1748463809,.3669061389-2.2482658319,.2087990317-3.1184867755-.7308396918-.4654035638-.5025393475-.7488906122-1.1140017112-.7817183004-1.7948244135-.0413720777-.857569503-.0833329285-1.726052848,.0037480431-2.5766432361,.1982872785-1.9370059274,1.8269915271-3.0501460196,3.6752363256-2.6124435103,.9456269763,.2239348074,2.0138192714,1.0182327469,1.8877787555,2.3895139251-.1465326904,.039490876-.3164296192,.0852572112-.5463239588,.1471932651-.0944047341-.2662690265-.1748799593-.478442733-.2450731963-.6939767541-.2470836409-.7585407463-.7926465028-1.1261218201-1.5626324229-1.210689736-.7944415426-.0872389352-1.4710135906,.1096841131-1.9569811305,.7872183024-.3041515468,.424031486-.4893852957,.8947483677-.5013330808,1.4160997325-.016140998,.7034114834-.0393329125,1.4096663098,.0073381228,2.1102631707,.0253028813,.3797442636,.1344700229,.7770081159,.3016241308,1.1196022355,.3999635922,.8197300636,1.0827536581,1.1930121839,2.0063949866,1.1238959707,.8652379131-.0647075954,1.4850149012-.4335380169,1.7364497186-1.3075644449,.0521853976-.1814426248,.1302337289-.3554322443,.215577102-.5844218839Z"/>
      <path class="cls-2" d="M5.153681381,103.356406557h.46929162c.0521279563,.0967311057,.1184008264,.1619556726,.1170222358,.2257298472-.0242689384,1.1248868327-.6316242509,1.8152735071-1.6663605939,2.1438519558-1.1249335037,.3572129238-2.1697220696,.217515745-3.0403881831-.6404271262-.4881574885-.4810275904-.8025335821-1.0867889076-.8431266126-1.7631599111-.0560231927-.9335212277-.103146578-1.8829967694,.0029725859-2.8076002393,.2092047107-1.8227265124,1.7796455568-2.903067637,3.531446456-2.5277176308,1.297695316,.278058848,1.8714941542,.9455982556,2.0202132032,2.4096901727-.1564987515,.0445169875-.3244067761,.0922937673-.5534179561,.1574465325-.0950437683-.2655653709-.1779997385-.4772795472-.2468825964-.6934741429-.2424847489-.7610394417-.7861412785-1.1307314823-1.5562528514-1.2157302078-.7916412805-.0873538177-1.4938357269,.0845966366-1.9507631126,.7833840973-.2090036662,.3196319702-.4272410172,.6964323685-.4527305826,1.0605095246-.0652640577,.9321139165-.1089517368,1.8809719645-.0061067255,2.8058770011,.1401926098,1.2608359684,1.0478509038,1.966602544,2.2490053883,1.9021534343,.8608759663-.0461684241,1.4958928425-.4044296512,1.7363061154-1.29291692,.0494748875-.1828499361,.1236818336-.3590079637,.1897716096-.5476163874Z"/>
      <path class="cls-2" d="M119.0969787567,98.615347389c-1.1860474294,.2068173077-2.4007724149-.0204778143-3.6482676473,.1399700249-.2731045381,.8306726263-.1445078855,1.6690136627-.0992441615,2.5833064239,1.0907092745,.2160653528,2.1919015816-.0443303034,3.2958510699,.1757128577-.0363459662,.2001828405-.0617062888,.339865659-.1021449458,.5625798394-1.03911265,.0190417824-2.0454406928,.0374947917-3.1010102679,.0568381408-.2592755514,.9720212418-.1457572333,1.887577711-.0804752251,2.8252490708,1.2724247454,.3810366923,2.5945505533-.1085065669,3.9344113547,.3406985575-.1515013607,.187129311-.2304113111,.3786672398-.324040588,.3861346054-1.4345383815,.1146671436-2.8687464757,.0993446837-4.2790589998,.0181801633-.2027964185-.9765016611-.2372755433-6.1479252157-.0689151687-7.4350692877,.0575848774-.0488825243,.1143799372-.1392232883,.1729700369-.1404008344,1.3272380813-.0264229861,2.6546772071-.0516827865,3.982030171-.0487820021,.1381319041,.000315927,.275847359,.1784700389,.4137638583,.2740810398-.0319517088,.0871671336-.0639177779,.1743342671-.0958694866,.2615014007Z"/>
      <path class="cls-2" d="M149.0161280353,98.2629738925c.0202480491,.3754074474-.21684081,.4183878809-.4582521251,.4224231304-.7043592644,.0117898215-1.4090057351,.0050404718-2.1133937201,.0150639741-.3835353877,.0054712814-.7667692088,.0302141102-1.2201244653,.049184091-.1324452179,.8656687226-.0805757474,1.6747147092-.0321958342,2.5387607158,1.0561439878,.3184113431,2.1667566639-.0159255933,3.2642583691,.2249113091-.026509148,.1839125996-.0469008004,.3252755754-.0797572092,.5532169117-.5321216037,.0133263756-1.0339572956,.0308316039-1.5359222304,.0370927028-.504363108,.0062898195-1.0088698192,.0013785906-1.5471376392,.0013785906-.2461214996,1.0090708636-.1543447037,1.9261638869-.0798433711,2.8646394246,1.2731140407,.3609035257,2.5920374976-.1234987395,3.9762716833,.3567821143-.2418995659,.1977846673-.3688017009,.3918643725-.4988487457,.393960979-1.3664130303,.0222154128-2.7333430321,.0137428249-4.1435837546,.0137428249-.0605718236-.216567964-.1532245989-.394951841-.1539282545-.5737090862-.0085731102-2.1917866991-.0048107067-4.3836451998,.0010052223-6.5754606195,.0003015667-.1115222338,.0483655529-.2229008645,.0840653048-.3769009206,.4574479473-.2699165474,.9753097547-.1397689804,1.4678830412-.157963504,.5472430192-.0202336888,1.0973150211-.0298263816,1.6433517735,.0028433431,.4814009586,.028806799,1.013278437-.177393015,1.4261519555,.2100340191Z"/>
      <path class="cls-2" d="M170.8437117034,48.4147037782v-.6019558328c1.015533007-.2370170576,3.9878317397-.2336854637,4.9183373005-.0007180159,.0202624095,.1043277142,.058245452,.216524883,.0578577234,.3286071693-.0002441254,.0693172576-.0588198648,.1384621914-.1323159751,.2955353557-.5221124617,.0377245568-1.0946440018,.0790966346-1.7623270126,.1273473049-.2097324524,1.7844562635,.0354987074,3.5778446452-.146604492,5.4169132001-.2932807857,.023349878-.5401633821,.0429947937-.789544674,.0628551143-.0643055065-.1756123355-.1361214595-.281663288-.1371984834-.3884466167-.0130966105-1.2910069976-.0121488295-2.5821719588-.0232780764-3.8732220374-.003288513-.3825445258-.0329282104-.7648736467-.0525444056-1.1920069616-.6834219199-.0618642523-1.2910787992-.1168642723-1.9323819049-.1749086799Z"/>
      <path class="cls-2" d="M71.7118120201,105.6474374176c-.2238630058,.0226031414-.3686868184,.037236306-.6050361212,.0610887951-.0382846092-.3299139583-.1006371124-.6265694188-.1025039538-.9235982476-.0100881238-1.6067042406-.0014647525-3.213494643-.008206922-4.8202276042-.0015939954-.3807207653-.0374588909-.7612835671-.0613329205-1.2136479616-.87907408-.0363028853-1.6834242424-.0695183021-2.4375348304-.100665833-.2035359749-.3709557487-.0730509405-.5260615493,.2028251391-.5766816722,.1906260485-.0349960963,.390356539-.0271553624,.5860086991-.0269686782,1.4891219523,.0013211493,2.9782941657-.0005600524,4.4673012355,.0143890392,.2638277723,.0026566589,.5815713606,.017447787,.4975778575,.4879205432-.7180159273,.3462560008-1.5310684428-.0032167113-2.374902301,.2543356018-.0320881318,.2530575334-.0999621774,.5483200431-.1019654418,.8440133622-.0108923016,1.6066755199-.002118147,3.213494643-.0082787236,4.8202132439-.0014719327,.3827455702-.034127297,.7653475372-.0539517168,1.1798294114Z"/>
      <path class="cls-2" d="M121.6957656041,98.1608720276c.1801645565-.0125652787,.3258356278-.0227323843,.5042195048-.0351684201,.0524869643,.1698394874,.1344413022,.3132272681,.1355326864,.4572469028,.0128094042,1.6832303781,.0136710233,3.3665756387,.0172180219,5.0498778184,.0008903398,.4270184323,.0001148825,.8540368646,.0001148825,1.2181140207,.4281672578,.3308760996,.8327835931,.2395301134,1.2156871269,.2482755473,.7434049705,.0170169775,1.4874992363,.0056866862,2.2307749639,.0255326464,.2400901658,.0064047021,.4669401179,.0857598224,.4377168696,.4082782166-.7264741549,.2734348254-3.1523484066,.3274152629-4.5794194225,.0846253572-.1450822983-.776606027-.0554882709-1.5938086745-.0696762656-2.4022084467-.0151214154-.8610016191-.0194869523-1.722850497,.001263708-2.5836079906,.0195731142-.8116452042-.1020875045-1.6333426315,.1065679239-2.4709656519Z"/>
      <path class="cls-2" d="M128.6719365523,98.1642179818c.2284726681-.0211671095,.3730092742-.0345652867,.5557874087-.0514961023,.3303447678,.7281830329,.1490313859,1.4742877432,.1767324403,2.1956065438,.0300130658,.7816464988,.006806791,1.5653465231,.006806791,2.3481418474v2.3049316489c.3542834189,.0526018468,.6479806538,.1262990016,.9434872888,.1343264197,.8213527796,.0222872144,1.6435815386,.0097650166,2.4651210023,.0276148926,.2430053104,.0052558766,.4726555246,.0785509425,.4359218298,.4081489737-.7133919047,.2757899177-3.1145807689,.3304165694-4.5442079214,.0898955941-.198402161-1.2147680665-.0782493758-2.4602097734-.0886462464-3.697480459-.0104255913-1.2417223844-.0626971508-2.4879682691,.0489974069-3.7596893589Z"/>
      <path class="cls-2" d="M17.3870823772,98.1624373023c.1235849014-.017806795,.2626645865-.0378394394,.3701802915-.0533198628,.0858675248,.1093538257,.166077084,.1645979712,.1723704936,.227295122,.0348883939,.3474622675,.070279399,.6966477733,.0717297911,1.0453881092,.006986295,1.6774431697,.0031484998,3.3549437807,.0031520899,5.0324156711v1.2072001786c-.2591032275,.0358433551-.4286375582,.0592937553-.592047213,.0818968967-.2230875486-1.000928563-.2364282845-6.4390519536-.0253854531-7.5408761147Z"/>
      <path class="cls-2" d="M77.2985575275,105.6923421337c-.1394674137-.0097075753-.2852677279-.0198603205-.4676006925-.0325548421-.0421547151-.2126045161-.1105672726-.3991737746-.111392991-.5860445999-.0090182801-2.0390072701-.0088244158-4.0780719814-.0065842061-6.1171079721,.0002082246-.1949126036-.0172180219-.4134479313,.0628622944-.5773709675,.0667611209-.1366527913,.2646319502-.2092585619,.4730504334-.3597977812,.0922578665,.2309570032,.1821534606,.361233813,.1931103837,.497829163,.1358845142,1.6935267265,.0408838269,6.3873835275-.143445222,7.1750469998Z"/>
    </g>
  </g>
</svg>